<svg width="18" height="21" viewBox="0 0 18 21" fill="none" xmlns="http://www.w3.org/2000/svg">
    <path
        d="M7.2407 8.99011C6.6707 8.99011 6.2207 9.49011 6.2207 10.1001C6.2207 10.7101 6.6807 11.2101 7.2407 11.2101C7.8107 11.2101 8.2607 10.7101 8.2607 10.1001C8.2707 9.49011 7.8107 8.99011 7.2407 8.99011ZM10.8907 8.99011C10.3207 8.99011 9.8707 9.49011 9.8707 10.1001C9.8707 10.7101 10.3307 11.2101 10.8907 11.2101C11.4607 11.2101 11.9107 10.7101 11.9107 10.1001C11.9107 9.49011 11.4607 8.99011 10.8907 8.99011Z"
        fill="#475467" />
    <path
        d="M15.7508 0.600098H2.35078C1.22078 0.600098 0.300781 1.5201 0.300781 2.6601V16.1801C0.300781 17.3201 1.22078 18.2401 2.35078 18.2401H13.6908L13.1608 16.3901L14.4408 17.5801L15.6508 18.7001L17.8008 20.6001V2.6601C17.8008 1.5201 16.8808 0.600098 15.7508 0.600098ZM11.8908 13.6601C11.8908 13.6601 11.5308 13.2301 11.2308 12.8501C12.5408 12.4801 13.0408 11.6601 13.0408 11.6601C12.6308 11.9301 12.2408 12.1201 11.8908 12.2501C11.3908 12.4601 10.9108 12.6001 10.4408 12.6801C9.48078 12.8601 8.60078 12.8101 7.85078 12.6701C7.28078 12.5601 6.79078 12.4001 6.38078 12.2401C6.15078 12.1501 5.90078 12.0401 5.65078 11.9001C5.62078 11.8801 5.59078 11.8701 5.56078 11.8501C5.54078 11.8401 5.53078 11.8301 5.52078 11.8201C5.34078 11.7201 5.24078 11.6501 5.24078 11.6501C5.24078 11.6501 5.72078 12.4501 6.99078 12.8301C6.69078 13.2101 6.32078 13.6601 6.32078 13.6601C4.11078 13.5901 3.27078 12.1401 3.27078 12.1401C3.27078 8.9201 4.71078 6.3101 4.71078 6.3101C6.15078 5.2301 7.52078 5.2601 7.52078 5.2601L7.62078 5.3801C5.82078 5.9001 4.99078 6.6901 4.99078 6.6901C4.99078 6.6901 5.21078 6.5701 5.58078 6.4001C6.65078 5.9301 7.50078 5.8001 7.85078 5.7701C7.91078 5.7601 7.96078 5.7501 8.02078 5.7501C8.63078 5.6701 9.32078 5.6501 10.0408 5.7301C10.9908 5.8401 12.0108 6.1201 13.0508 6.6901C13.0508 6.6901 12.2608 5.9401 10.5608 5.4201L10.7008 5.2601C10.7008 5.2601 12.0708 5.2301 13.5108 6.3101C13.5108 6.3101 14.9508 8.9201 14.9508 12.1401C14.9508 12.1401 14.1008 13.5901 11.8908 13.6601Z"
        fill="#475467" />
</svg>