<svg width="20" height="21" viewBox="0 0 20 21" fill="none" xmlns="http://www.w3.org/2000/svg">
    <path
        d="M10 1.8501C5.16562 1.8501 1.25 5.76572 1.25 10.6001C1.25 14.472 3.75469 17.7423 7.23281 18.9017C7.67031 18.9782 7.83437 18.7157 7.83437 18.486C7.83437 18.2782 7.82344 17.5892 7.82344 16.8563C5.625 17.261 5.05625 16.3204 4.88125 15.8282C4.78281 15.5767 4.35625 14.8001 3.98438 14.5923C3.67812 14.4282 3.24063 14.0235 3.97344 14.0126C4.6625 14.0017 5.15469 14.647 5.31875 14.9095C6.10625 16.2329 7.36406 15.861 7.86719 15.6313C7.94375 15.0626 8.17344 14.6798 8.425 14.461C6.47812 14.2423 4.44375 13.4876 4.44375 10.1407C4.44375 9.18916 4.78281 8.40166 5.34063 7.78916C5.25313 7.57041 4.94687 6.67354 5.42812 5.47041C5.42812 5.47041 6.16094 5.24072 7.83437 6.36729C8.53437 6.17041 9.27813 6.07197 10.0219 6.07197C10.7656 6.07197 11.5094 6.17041 12.2094 6.36729C13.8828 5.22979 14.6156 5.47041 14.6156 5.47041C15.0969 6.67354 14.7906 7.57041 14.7031 7.78916C15.2609 8.40166 15.6 9.17822 15.6 10.1407C15.6 13.4985 13.5547 14.2423 11.6078 14.461C11.925 14.7345 12.1984 15.2595 12.1984 16.0798C12.1984 17.2501 12.1875 18.1907 12.1875 18.486C12.1875 18.7157 12.3516 18.9892 12.7891 18.9017C14.5261 18.3153 16.0355 17.1989 17.1048 15.7097C18.1741 14.2205 18.7495 12.4334 18.75 10.6001C18.75 5.76572 14.8344 1.8501 10 1.8501Z"
        fill="#475467" />
</svg>