<svg width="20" height="21" viewBox="0 0 20 21" fill="none" xmlns="http://www.w3.org/2000/svg">
    <path
        d="M6.2896 18.7257C13.8368 18.7257 17.9648 12.4729 17.9648 7.05045C17.9648 6.87285 17.9648 6.69605 17.9528 6.52005C18.7559 5.93918 19.4491 5.21995 20 4.39605C19.2512 4.72805 18.4567 4.94568 17.6432 5.04165C18.4998 4.52889 19.141 3.7223 19.4472 2.77205C18.6417 3.25006 17.7605 3.58691 16.8416 3.76805C16.2229 3.1102 15.4047 2.67458 14.5135 2.52862C13.6223 2.38266 12.7078 2.53448 11.9116 2.96059C11.1154 3.38671 10.4819 4.06336 10.109 4.88584C9.73605 5.70832 9.64462 6.63077 9.8488 7.51045C8.21741 7.42861 6.62146 7.00464 5.16455 6.26605C3.70763 5.52746 2.4223 4.49077 1.392 3.22325C0.867274 4.12658 0.70656 5.19594 0.942583 6.2136C1.17861 7.23126 1.79362 8.12071 2.6624 8.70085C2.00936 8.68172 1.37054 8.50555 0.8 8.18725V8.23925C0.800259 9.18662 1.12821 10.1047 1.72823 10.8379C2.32824 11.571 3.16338 12.0741 4.092 12.2617C3.4879 12.4264 2.85406 12.4505 2.2392 12.3321C2.50151 13.1473 3.01202 13.8602 3.69937 14.3712C4.38671 14.8821 5.21652 15.1654 6.0728 15.1817C5.22203 15.8504 4.24776 16.3448 3.20573 16.6366C2.16369 16.9285 1.07435 17.012 0 16.8825C1.87653 18.0866 4.05994 18.7254 6.2896 18.7225"
        fill="#475467" />
</svg>