<svg class="icon" preserveAspectRatio="xMidYMid meet" viewBox="0 0 32 32" fill="none" xmlns="http://www.w3.org/2000/svg">
<path d="M17.008 1.43202C16.7021 1.25349 16.3542 1.15942 16 1.15942C15.6458 1.15942 15.2979 1.25349 14.992 1.43202L3.992 7.84802C3.69005 8.02422 3.43955 8.27649 3.26549 8.57969C3.09144 8.88288 2.9999 9.22641 3 9.57602V10.2688C2.61872 10.4889 2.32073 10.8287 2.15224 11.2355C1.98376 11.6423 1.9542 12.0932 2.06815 12.5185C2.1821 12.9438 2.43319 13.3196 2.78248 13.5876C3.13177 13.8556 3.55973 14.0009 4 14.0009C4.44027 14.0009 4.86823 13.8556 5.21752 13.5876C5.56681 13.3196 5.8179 12.9438 5.93185 12.5185C6.0458 12.0932 6.01624 11.6423 5.84776 11.2355C5.67928 10.8287 5.38128 10.4889 5 10.2688V9.57602L16 3.16002L27 9.57602V14.0016H29V9.57602C29.0001 9.22641 28.9086 8.88288 28.7345 8.57969C28.5604 8.27649 28.31 8.02422 28.008 7.84802L17.0064 1.43202H17.008ZM30 20C30 20.7408 29.5984 21.3872 29 21.7344V22.4272C29 23.1392 28.6224 23.7968 28.008 24.1552L17.0064 30.5712C16.7005 30.7497 16.3526 30.8438 15.9984 30.8438C15.6442 30.8438 15.2963 30.7497 14.9904 30.5712L3.992 24.1552C3.69005 23.979 3.43955 23.7267 3.26549 23.4235C3.09144 23.1203 2.9999 22.7768 3 22.4272V18.0016H5V22.4272L16 28.8432L27 22.4272V21.7344C26.696 21.5589 26.4436 21.3065 26.2681 21.0026C26.0926 20.6987 26.0001 20.3539 26 20.003C25.9999 19.652 26.0922 19.3072 26.2675 19.0031C26.4429 18.6991 26.6951 18.4466 26.999 18.2709C27.3028 18.0952 27.6476 18.0026 27.9985 18.0024C28.3495 18.0021 28.6944 18.0942 28.9985 18.2694C29.3026 18.4447 29.5552 18.6968 29.731 19.0006C29.9068 19.3044 29.9996 19.649 30 20Z" fill="url(#paint0_linear_847_577105)"/>
<path d="M9.8848 22H8L12.2368 10H14.288L18.5248 22H16.6384L15.5632 18.8256H10.9632L9.8848 22.0016V22ZM13.312 12.1824H13.2208L11.4816 17.3024H15.048L13.312 12.1824ZM22 10V22H20.224V10H22Z" fill="url(#paint1_linear_847_577105)"/>
<defs>
<linearGradient id="paint0_linear_847_577105" x1="16" y1="1.15942" x2="16" y2="30.8438" gradientUnits="userSpaceOnUse">
<stop stop-color="white"/>
<stop offset="1" stop-color="#666666"/>
</linearGradient>
<linearGradient id="paint1_linear_847_577105" x1="15" y1="10" x2="15" y2="22.0016" gradientUnits="userSpaceOnUse">
<stop stop-color="white"/>
<stop offset="1" stop-color="#666666"/>
</linearGradient>
</defs>
</svg>
