<svg class="icon" preserveAspectRatio="xMidYMid meet" viewBox="0 0 26 26" fill="none" xmlns="http://www.w3.org/2000/svg">
<path d="M12.1348 0C13.5677 0.000198911 14.7303 1.16179 14.7305 2.59473L14.7168 2.86035C14.6909 3.11586 14.6259 3.35974 14.5312 3.58789L23.3711 9.21289C23.5915 9.12444 23.832 9.0752 24.084 9.0752L24.2793 9.08496C25.2454 9.18292 25.9989 9.99928 25.999 10.9912L25.9893 11.1865C25.8913 12.1526 25.0759 12.9061 24.084 12.9062L23.8877 12.8965C23.8171 12.8893 23.7479 12.877 23.6797 12.8623L18.707 20.668C18.9918 21.114 19.1571 21.6436 19.1572 22.2119L19.1426 22.5049C18.9956 23.954 17.772 25.0848 16.2842 25.085L15.9902 25.0703C14.8262 24.9521 13.8693 24.1392 13.5371 23.0527L6.90234 20.1504C6.45121 20.6581 5.79521 20.9805 5.0625 20.9805C3.70258 20.9802 2.59986 19.8775 2.59961 18.5176C2.59969 17.5751 3.12953 16.7558 3.90723 16.3418L2.74316 10.7168C2.74089 10.7168 2.73861 10.7178 2.73633 10.7178L2.45703 10.7031C1.07707 10.563 0.000132874 9.39738 0 7.98047C0.000251847 6.46935 1.22521 5.24439 2.73633 5.24414C3.64907 5.24414 4.45575 5.69207 4.95312 6.37891L9.90137 3.91309C9.67269 3.52645 9.54004 3.07642 9.54004 2.59473C9.54023 1.16178 10.7018 0.000188862 12.1348 0ZM16.2842 20.1377C15.1392 20.1378 14.2102 21.0669 14.21 22.2119C14.2102 23.3569 15.1391 24.2851 16.2842 24.2852C17.4291 24.2849 18.3572 23.3568 18.3574 22.2119C18.3572 21.067 17.4291 20.1379 16.2842 20.1377ZM14.2939 4.0293C13.8289 4.728 13.0368 5.1903 12.1348 5.19043L11.8701 5.17676C11.2082 5.10962 10.6201 4.79302 10.2002 4.32324L5.20801 6.81152C5.37621 7.16632 5.47356 7.56178 5.47363 7.98047L5.45898 8.26074C5.33588 9.47163 4.42326 10.4486 3.24414 10.6699L4.37793 16.1523C4.59539 16.0895 4.8248 16.0547 5.0625 16.0547C6.42277 16.0547 7.52527 17.1573 7.52539 18.5176C7.52531 18.9611 7.40634 19.376 7.20117 19.7354L13.4219 22.4551L13.4102 22.2119C13.4104 20.6251 14.6973 19.338 16.2842 19.3379L16.5771 19.3525C17.2868 19.4245 17.9193 19.756 18.3809 20.249L23.1982 12.6875C22.6412 12.3963 22.2441 11.8411 22.1777 11.1865L22.168 10.9912C22.168 10.3869 22.4484 9.84822 22.8857 9.49707L14.2939 4.0293ZM5.0625 16.8545C4.14433 16.8548 3.39954 17.5994 3.39941 18.5176C3.39967 19.4357 4.14441 20.1804 5.0625 20.1807C5.98085 20.1807 6.72533 19.4359 6.72559 18.5176C6.72546 17.5992 5.98094 16.8545 5.0625 16.8545ZM13.9697 14.6836C14.3839 14.6836 14.7197 15.0194 14.7197 15.4336C14.7197 15.8478 14.3839 16.1836 13.9697 16.1836H8.5498C8.13562 16.1836 7.79982 15.8478 7.7998 15.4336C7.7998 15.0194 8.13561 14.6836 8.5498 14.6836H13.9697ZM19.1602 11.3887C19.5744 11.3887 19.9102 11.7245 19.9102 12.1387C19.9102 12.5529 19.5744 12.8887 19.1602 12.8887H8.5498C8.13561 12.8886 7.79981 12.5529 7.7998 12.1387C7.7998 11.7245 8.13561 11.3887 8.5498 11.3887H19.1602ZM24.084 9.875C23.4679 9.87504 22.9679 10.3751 22.9678 10.9912C22.9679 11.6073 23.4679 12.1064 24.084 12.1064C24.7 12.1063 25.1991 11.6072 25.1992 10.9912C25.1991 10.3752 24.7 9.87514 24.084 9.875ZM2.73633 6.04395C1.66704 6.0442 0.800056 6.91118 0.799805 7.98047C0.799946 9.04986 1.66697 9.91772 2.73633 9.91797C3.8059 9.91797 4.67369 9.05001 4.67383 7.98047C4.67358 6.91102 3.80583 6.04395 2.73633 6.04395ZM15.7002 8.09375C16.1143 8.09382 16.4502 8.42959 16.4502 8.84375C16.4502 9.25792 16.1143 9.59368 15.7002 9.59375H8.5498C8.13561 9.59372 7.7998 9.25795 7.7998 8.84375C7.79981 8.42956 8.13562 8.09378 8.5498 8.09375H15.7002ZM12.1348 0.799805C11.1437 0.799994 10.34 1.60361 10.3398 2.59473C10.3399 3.58599 11.1435 4.39044 12.1348 4.39062C13.126 4.39043 13.9307 3.58599 13.9307 2.59473C13.9305 1.60362 13.1259 0.800004 12.1348 0.799805Z" fill="url(#paint0_linear_847_577876)"/>
<defs>
<linearGradient id="paint0_linear_847_577876" x1="12.9994" y1="0.864999" x2="12.9994" y2="25.085" gradientUnits="userSpaceOnUse">
<stop stop-color="white"/>
<stop offset="1" stop-color="#6D6D6D"/>
</linearGradient>
</defs>
</svg>
