<svg class="icon" preserveAspectRatio="xMidYMid meet" viewBox="0 0 160 160" fill="none" xmlns="http://www.w3.org/2000/svg">
<g id="tavily">
<rect id="&#231;&#159;&#169;&#229;&#189;&#162;" width="160" height="160" fill="#D8D8D8" fill-opacity="0.01"/>
<mask id="mask0_0_27514" style="mask-type:luminance" maskUnits="userSpaceOnUse" x="0" y="0" width="160" height="160">
<rect id="&#231;&#159;&#169;&#229;&#189;&#162;_2" width="160" height="160" fill="white"/>
</mask>
<g mask="url(#mask0_0_27514)">
<path id="&#232;&#183;&#175;&#229;&#190;&#132;" d="M65.5927 18.6829L80.673 42.5566C83.095 46.3907 80.34 51.3897 75.805 51.3897H69.6395V87.1424H60.7246V16C62.5938 16 64.463 16.8943 65.5927 18.6829Z" fill="#8FBCFA"/>
<path id="&#232;&#183;&#175;&#229;&#190;&#132;_2" d="M40.7741 42.5566L55.8549 18.6829C56.9845 16.8943 58.8537 16 60.7229 16V87.1429C57.5293 86.9939 54.4377 87.9179 51.808 89.7754V51.3897H45.6424C41.1074 51.3897 38.3523 46.3907 40.7741 42.5566Z" fill="#468BFF"/>
<path id="&#232;&#183;&#175;&#229;&#190;&#132;_3" d="M108.001 110.726H70.6699C72.8239 108.314 74.1004 105.244 74.2379 101.811H143.391C143.391 103.68 142.496 105.549 140.708 106.679L116.834 121.759C113 124.181 108.001 121.426 108.001 116.891V110.726Z" fill="#FDBB11"/>
<path id="&#232;&#183;&#175;&#229;&#190;&#132;_4" d="M116.834 81.8621L140.708 96.9426C142.497 98.0721 143.391 99.9416 143.391 101.811H74.2355C74.36 98.6091 73.3665 95.4521 71.4785 92.8956H108.001V86.7301C108.001 82.1951 113 79.4401 116.834 81.8621Z" fill="#F6D785"/>
<path id="&#232;&#183;&#175;&#229;&#190;&#132;_5" d="M40.4704 120.903L18.6895 142.684C20.0111 144.006 21.9652 144.695 24.0288 144.229L51.5736 138.011C55.9972 137.013 57.5839 131.53 54.3772 128.323L50.0175 123.963L66.3958 107.532C69.8855 104.042 69.731 98.4535 66.3379 95.0605L40.4704 120.903Z" fill="#FF9A9D"/>
<path id="&#232;&#183;&#175;&#229;&#190;&#132;_6" d="M37.4111 111.358L53.8449 94.9857C57.3347 91.4957 62.9466 91.6682 66.3395 95.0607L40.4718 120.905L18.6907 142.686C17.369 141.365 16.6797 139.41 17.1455 137.347L23.3632 109.802C24.3618 105.378 29.8447 103.792 33.0514 106.998L37.4111 111.358Z" fill="#FE363B"/>
</g>
</g>
</svg>
