<svg class="icon" preserveAspectRatio="xMidYMid meet" viewBox="0 0 29 32" fill="none" xmlns="http://www.w3.org/2000/svg">
<path d="M14.2832 0C15.3878 0 16.2832 0.895431 16.2832 2C16.2832 2.18454 16.2558 2.36256 16.209 2.53223L20.5361 4.80273L20.5459 4.80762L24.9688 7.28809C25.2701 7.10617 25.6224 7.00001 26 7C27.1046 7 28 7.89543 28 9C28 9.7354 27.602 10.3762 27.0107 10.7236V21.2275C27.717 21.5362 28.2109 22.2405 28.2109 23.0605C28.2108 24.165 27.3154 25.0605 26.2109 25.0605C25.7404 25.0605 25.3084 24.897 24.9668 24.625L20.5254 27.1904L15.9893 29.8076C15.9953 29.871 16 29.9351 16 30C16 31.1046 15.1046 32 14 32C12.8955 32 12 31.1045 12 30C12 29.9068 12.0082 29.8154 12.0205 29.7256L7.62988 27.1904L3.17285 24.6162C2.84303 24.856 2.43895 25 2 25C0.895459 25 0 24.1045 0 23C0 22.1922 0.479511 21.4973 1.16895 21.1816V10.8174C0.479709 10.5017 0 9.80769 0 9C0 7.89545 0.895459 7.00003 2 7C2.43875 7 2.84311 7.14327 3.17285 7.38281L7.62988 4.81055L12.2891 2.12012C12.2867 2.08033 12.2832 2.04038 12.2832 2C12.2832 0.895431 13.1786 0 14.2832 0ZM8.56738 19.9609L3.96191 22.6191C3.98573 22.7425 4 22.8696 4 23C4 23.3694 3.89726 23.7138 3.72266 24.0107L8.0293 26.4971L12.2939 28.959C12.6453 28.3844 13.2772 28 14 28C14.7504 28 15.4029 28.414 15.7451 29.0254L20.125 26.4971L24.4463 24.002C24.2963 23.7214 24.211 23.401 24.2109 23.0605C24.2109 22.9165 24.2269 22.776 24.2559 22.6406L19.6133 19.9609L15.8525 17.7891C15.4863 18.2538 14.9208 18.5547 14.2832 18.5547C13.5757 18.5547 12.9552 18.1862 12.5996 17.6318L8.56738 19.9609ZM15.8457 3.24512C15.5197 3.65365 15.0386 3.93185 14.4902 3.98828V14.5645C15.4975 14.668 16.2832 15.52 16.2832 16.5547C16.2832 16.734 16.2562 16.9069 16.2119 17.0723L20.0137 19.2676L24.5801 21.9043C24.9425 21.394 25.5374 21.0605 26.2109 21.0605V10.9873C26.1416 10.9946 26.0713 11 26 11C24.8955 11 24 10.1045 24 9C24 8.57673 24.1321 8.18456 24.3564 7.86133L20.1553 5.50586V5.50488L15.8457 3.24512ZM8.0293 5.50293L3.72363 7.98926C3.89808 8.2861 4 8.6308 4 9C4 10.1046 3.10457 11 2 11C1.98988 11 1.97981 10.9982 1.96973 10.998V21.001C1.9798 21.0008 1.98989 21 2 21C2.68682 21 3.29223 21.3466 3.65234 21.874L8.16797 19.2676L12.3115 16.875C12.2947 16.7706 12.2832 16.6639 12.2832 16.5547C12.2832 15.6565 12.8753 14.8962 13.6904 14.6436V3.91016C13.1758 3.75063 12.7507 3.38901 12.5068 2.91797L8.0293 5.50293Z" fill="url(#paint0_linear_847_577918)"/>
<defs>
<linearGradient id="paint0_linear_847_577918" x1="13.9999" y1="2.03448" x2="13.9999" y2="31" gradientUnits="userSpaceOnUse">
<stop stop-color="white"/>
<stop offset="1" stop-color="#6D6D6D"/>
</linearGradient>
</defs>
</svg>
