<svg class="icon" preserveAspectRatio="xMidYMid meet" viewBox="0 0 28 30" fill="none" xmlns="http://www.w3.org/2000/svg">
<path d="M22.2148 0.00683594C24.921 0.14413 27.0732 2.38177 27.0732 5.12207L27.0664 5.38574C26.9291 8.09188 24.6914 10.2441 21.9512 10.2441L21.6875 10.2373C20.7731 10.1909 19.9225 9.90384 19.1963 9.43945L14.5146 15.1592C15.4267 15.9827 16 17.1744 16 18.5C16 19.2695 15.8063 19.9935 15.4658 20.627L20.4414 24.5684C20.8825 24.3019 21.3983 24.1465 21.9512 24.1465C23.5676 24.1465 24.8779 25.4568 24.8779 27.0732C24.8779 28.6896 23.5676 30 21.9512 30C20.3348 30 19.0245 28.6896 19.0244 27.0732C19.0244 26.3775 19.2674 25.7386 19.6729 25.2363L14.8945 21.4512C14.0695 22.3993 12.8555 23 11.5 23C10.236 23 9.09476 22.4778 8.27734 21.6387L4.88477 24.6182C5.0361 24.9162 5.12207 25.2533 5.12207 25.6104L5.11035 25.835C4.99757 26.9414 4.06296 27.8056 2.92676 27.8057L2.70215 27.7939C1.6694 27.689 0.848414 26.8676 0.743164 25.835L0.731445 25.6104C0.731445 24.3981 1.71455 23.4152 2.92676 23.415L3.15137 23.4268C3.55765 23.4681 3.93109 23.6203 4.24121 23.8525L7.66113 20.8486C7.24194 20.1649 7 19.3608 7 18.5C7 17.2591 7.50212 16.1354 8.31445 15.3213L5.48047 10.4893C4.94377 10.7982 4.32186 10.9756 3.6582 10.9756L3.4707 10.9707C1.53744 10.8729 0 9.27396 0 7.31641C0.000345129 5.29626 1.63802 3.65838 3.6582 3.6582C5.67854 3.6582 7.31704 5.29615 7.31738 7.31641L7.3125 7.50488C7.26596 8.42372 6.87942 9.25264 6.27734 9.87012L9.10449 14.6904C9.79822 14.2533 10.6195 14 11.5 14C12.2994 14 13.0495 14.2097 13.7002 14.5752L18.4102 8.82129C17.4957 7.9456 16.9044 6.73488 16.8359 5.38574L16.8291 5.12207C16.8291 2.29336 19.1225 9.89624e-05 21.9512 0L22.2148 0.00683594ZM21.9512 25.1465C20.8871 25.1465 20.0245 26.0091 20.0244 27.0732C20.0245 28.1373 20.8871 29 21.9512 29C23.0153 29 23.8779 28.1373 23.8779 27.0732C23.8779 26.0091 23.0153 25.1465 21.9512 25.1465ZM2.92676 24.2148C2.15638 24.215 1.53125 24.8399 1.53125 25.6104C1.53158 26.3805 2.15659 27.0047 2.92676 27.0049C3.69697 27.0048 4.32096 26.3805 4.32129 25.6104C4.32129 24.8399 3.69717 24.2149 2.92676 24.2148ZM3.6582 4.6582C2.1903 4.65838 1.00035 5.84854 1 7.31641C1 8.78456 2.19009 9.97541 3.6582 9.97559C5.12647 9.97559 6.31738 8.78468 6.31738 7.31641C6.31704 5.84843 5.12626 4.6582 3.6582 4.6582ZM21.9512 1.2002C19.7852 1.20029 18.0293 2.9561 18.0293 5.12207C18.0294 7.28799 19.7853 9.04385 21.9512 9.04395C24.1171 9.04388 25.873 7.28801 25.873 5.12207C25.873 2.95608 24.1172 1.20026 21.9512 1.2002Z" fill="url(#paint0_linear_847_577943)"/>
<defs>
<linearGradient id="paint0_linear_847_577943" x1="13.5365" y1="1.03448" x2="13.5365" y2="30" gradientUnits="userSpaceOnUse">
<stop stop-color="white"/>
<stop offset="1" stop-color="#6D6D6D"/>
</linearGradient>
</defs>
</svg>
